<svg id="visual" viewBox="0 0 1920 250" width="1920" height="250" xmlns="http://www.w3.org/2000/svg" xmlns:xlink="http://www.w3.org/1999/xlink" version="1.1"><path d="M0 215L53.3 197.2C106.7 179.3 213.3 143.7 320 121.5C426.7 99.3 533.3 90.7 640 106.7C746.7 122.7 853.3 163.3 960 187.8C1066.7 212.3 1173.3 220.7 1280 194.7C1386.7 168.7 1493.3 108.3 1600 108C1706.7 107.7 1813.3 167.3 1866.7 197.2L1920 227L1920 251L1866.7 251C1813.3 251 1706.7 251 1600 251C1493.3 251 1386.7 251 1280 251C1173.3 251 1066.7 251 960 251C853.3 251 746.7 251 640 251C533.3 251 426.7 251 320 251C213.3 251 106.7 251 53.3 251L0 251Z" fill="#F9F9F9" stroke-linecap="round" stroke-linejoin="miter"></path></svg>